<svg data-v-0dd9719b="" version="1.0" xmlns="http://www.w3.org/2000/svg" xmlns:xlink="http://www.w3.org/1999/xlink" width="100%" height="100%" viewBox="0 0 340.000000 250.000000" preserveAspectRatio="xMidYMid meet" color-interpolation-filters="sRGB" style="margin: auto;"> <rect data-v-0dd9719b="" x="0" y="0" width="100%" height="100%" fill="#fff" fill-opacity="1" class="background"></rect> <rect data-v-0dd9719b="" x="0" y="0" width="100%" height="100%" fill="url(#watermark)" fill-opacity="1" class="watermarklayer"></rect> <g data-v-0dd9719b="" fill="#2052a3" class="icon-text-wrapper icon-svg-group iconsvg" transform="translate(54.540000915527344,88.18792343139648)"><g class="iconsvg-imagesvg" transform="translate(0,0)"><g><rect fill="#2052a3" fill-opacity="0" stroke-width="2" x="0" y="0" width="60.00000000000001" height="73.62414872078043" class="image-rect"></rect> <svg x="0" y="0" width="60.00000000000001" height="73.62414872078043" filtersec="colorsb2298002064" class="image-svg-svg primary" style="overflow: visible;"><svg xmlns="http://www.w3.org/2000/svg" viewBox="0 0 28.59000015258789 35.08198928833008"><g><g><path d="M0 21.17a14.29 14.29 0 0 0 28.57 0z" fill="#e5004f" opacity=".9" style="isolation:isolate"></path><path d="M17.71 0v34.66A14.3 14.3 0 0 0 28.59 20.8V0z" fill="#2052a3" opacity=".9" style="isolation:isolate"></path></g></g></svg></svg> <!----></g></g> <g transform="translate(67,23.49207592010498)"><g data-gra="path-name" fill-rule="" class="tp-name iconsvg-namesvg"><g transform="scale(1)"><g><path d="M25.39-26.57L25.39-11.33Q25.39-9.01 24.5-6.94 23.6-4.86 22.06-3.31 20.52-1.75 18.45-0.86 16.38 0.04 14.02 0.04L14.02 0.04Q11.67 0.04 9.6-0.86 7.53-1.75 5.99-3.31 4.45-4.86 3.55-6.94 2.66-9.01 2.66-11.33L2.66-11.33Q2.66-11.36 2.7-11.36L2.7-11.36 8.02-11.36Q8.02-11.36 8.02-11.33L8.02-11.33Q8.02-10.11 8.49-9.01 8.97-7.91 9.79-7.09 10.6-6.27 11.71-5.82 12.81-5.36 14.02-5.36L14.02-5.36Q15.28-5.36 16.36-5.82 17.45-6.27 18.26-7.09 19.08-7.91 19.55-9.01 20.03-10.11 20.03-11.33L20.03-11.33 20.03-26.57Q20.03-26.6 20.07-26.6L20.07-26.6 25.39-26.6Q25.39-26.6 25.39-26.57L25.39-26.57ZM32.95 0.04L27.36 0.04 27.33 0 27.33 0 35.88-26.57 35.92-26.6 41.5-26.6 41.5-26.57 50.05 0 50.05 0 50.05 0.04 44.47 0.04 44.43 0 43.25-3.61 34.13-3.61 32.95 0 32.95 0.04ZM35.84-8.97L41.54-8.97 38.69-17.83 35.84-8.97ZM60.77-5.36L67.5-5.36Q68.6-5.36 69.36-6.12 70.12-6.88 70.12-7.98L70.12-7.98Q70.12-9.08 69.36-9.84 68.6-10.6 67.5-10.6L67.5-10.6 60.77-10.6Q59.1-10.6 57.64-11.23 56.17-11.86 55.09-12.94 54.01-14.02 53.38-15.49 52.75-16.95 52.75-18.62L52.75-18.62Q52.75-20.26 53.38-21.72 54.01-23.18 55.09-24.27 56.17-25.35 57.64-25.98 59.1-26.6 60.77-26.6L60.77-26.6 67.5-26.6Q69.17-26.6 70.62-25.98 72.06-25.35 73.14-24.27 74.23-23.18 74.87-21.72 75.52-20.26 75.52-18.62L75.52-18.62Q75.52-18.59 75.48-18.59L75.48-18.59 70.16-18.59Q70.12-18.59 70.12-18.62L70.12-18.62Q70.12-19.69 69.36-20.47 68.6-21.25 67.5-21.25L67.5-21.25 60.77-21.25Q59.67-21.25 58.89-20.47 58.11-19.69 58.11-18.62L58.11-18.62Q58.11-17.52 58.89-16.74 59.67-15.96 60.77-15.96L60.77-15.96 67.5-15.96Q69.17-15.96 70.62-15.34 72.06-14.71 73.14-13.63 74.23-12.54 74.87-11.08 75.52-9.62 75.52-7.98L75.52-7.98Q75.52-6.31 74.87-4.86 74.23-3.42 73.14-2.32 72.06-1.22 70.62-0.59 69.17 0.04 67.5 0.04L67.5 0.04 60.77 0.04Q59.1 0.04 57.64-0.59 56.17-1.22 55.09-2.32 54.01-3.42 53.38-4.86 52.75-6.31 52.75-7.98L52.75-7.98Q52.75-7.98 52.79-7.98L52.79-7.98 58.11-7.98Q58.11-7.98 58.11-7.98L58.11-7.98Q58.11-6.88 58.89-6.12 59.67-5.36 60.77-5.36L60.77-5.36ZM116.83-0.04L116.83-0.04Q116.87-0.04 116.87 0L116.87 0Q116.87 0.04 116.83 0.04L116.83 0.04 103.57 0.04 103.57 0.04 98.25 0.04Q98.21 0.04 98.21 0L98.21 0 98.21-10.6 86.2-10.6 86.2 0Q86.2 0.04 86.2 0.04L86.2 0.04 80.88 0.04Q80.84 0.04 80.84 0L80.84 0 80.84-26.57Q80.84-26.6 80.88-26.6L80.88-26.6 86.2-26.6Q86.2-26.6 86.2-26.57L86.2-26.57 86.2-15.96 98.21-15.96 98.21-26.57Q98.21-26.6 98.25-26.6L98.25-26.6 103.57-26.6Q103.57-26.6 103.57-26.57L103.57-26.57 103.57-13.23Q103.61-10.53 104.65-8.11 105.7-5.7 107.48-3.9 109.27-2.09 111.68-1.06 114.1-0.04 116.83-0.04ZM118.13-5.43L118.13-5.43Q116.49-5.17 114.95-5.55 113.41-5.93 112.18-6.82 110.94-7.72 110.09-9.05 109.23-10.38 108.97-12.01L108.97-12.01Q108.7-13.64 109.1-15.18 109.5-16.72 110.39-17.96 111.28-19.19 112.61-20.05 113.94-20.9 115.58-21.17L115.58-21.17Q117.21-21.44 118.73-21.04 120.25-20.64 121.51-19.74 122.76-18.85 123.6-17.52 124.43-16.19 124.7-14.56L124.7-14.56Q124.97-12.92 124.59-11.4 124.21-9.88 123.31-8.63 122.42-7.37 121.09-6.54 119.76-5.7 118.13-5.43ZM140.93 0.04L135.34 0.04 135.3 0 126.75-26.57 126.75-26.6 126.79-26.6 132.38-26.6 132.38-26.57 138.12-8.74 143.86-26.57 143.86-26.6 143.86-26.6 143.89-26.6 149.48-26.6 149.48-26.6 149.48-26.6 149.48-26.57 155.22-8.74 160.96-26.57 161-26.6 166.58-26.6 166.58-26.6 166.58-26.57 158.03 0 158.03 0.04 152.45 0.04 152.41 0 146.67-17.83 140.93 0 140.93 0.04Z" transform="translate(-2.6600000858306885, 26.600000381469727)"></path></g> <!----> <!----> <!----> <!----> <!----> <!----> <!----></g></g> <!----></g></g><defs v-gra="od"></defs></svg>